# xmcd CD database file
#
# Track frame offsets:
#	150
#	13455
#	28527
#	46577
#	62022
#	76077
#	94812
#	111240
#	127577
#	130882
#	144167
#	158997
#	181880
#	196520
#
# Disc length: 2896 seconds
#
# Revision: 2
# Processed by: cddbd v1.5.2PL0 Copyright (c) Steve Scherf et al.
# Submitted via: CDex 1.79
#
DISCID=a60b4e0e
DTITLE=Lisa O'Kane - Peace Of Mind
DYEAR=2004
DGENRE=Country
TTITLE0=No Tomorrow
TTITLE1=Foggy River
TTITLE2=Long Gone
TTITLE3=Settle Down
TTITLE4=Stronger Than Your Memory
TTITLE5=Peace Of Mind
TTITLE6=Wrap Me Up
TTITLE7=A Room Up For Rent
TTITLE8=Little White Lies
TTITLE9=Softer Place To Fall
TTITLE10=Coercion Street
TTITLE11=Everyone Says Goodbye
TTITLE12=Sometimes
TTITLE13=Highland Ground
EXTD=YEAR: 2004
EXTT0=
EXTT1=
EXTT2=
EXTT3=
EXTT4=
EXTT5=
EXTT6=
EXTT7=
EXTT8=
EXTT9=
EXTT10=
EXTT11=
EXTT12=
EXTT13=
PLAYORDER=
